<svg xmlns="http://www.w3.org/2000/svg" xmlns:xlink="http://www.w3.org/1999/xlink" version="1.1" id="Layer_1" x="0px" y="0px" style="enable-background:new 0 0 950.73 1386.91;" xml:space="preserve" viewBox="92.83 42.08 704.77 1250.07"> <style type="text/css"> .st0{fill:#6DC178;} .st1{fill:#3EA25A;} .st2{fill:#010B04;} .st3{fill:#7E7F7F;} </style> <path class="st0" d="M358.68,1265.41c0.45-23.5,0.92-47,1.34-70.49c0.03-1.59,0.63-3.34-0.8-4.71c1.95-9.99,0.86-20.16,1.76-30.24 c1.22-13.72-0.07-27.55,1.02-41.37c1.15-14.56,0.49-29.24,0.9-43.86c0.51-18.77,1.55-37.56,1.27-56.35 c-0.04-2.8,0.72-4.31,3.55-5.63c12.45-5.85,24.71-12.12,37.22-18.32c-0.42-0.55-0.63-1.02-0.98-1.26 c-20.08-13.56-40.17-27.08-60.24-40.66c-2.89-1.95-4.13-0.51-5.11,2.07c-2.37,6.2-4.84,12.37-7.2,18.58 c-9.19,24.22-18.27,48.48-27.55,72.67c-17.85,46.51-35.75,93.01-53.77,139.45c-5.57,14.37-10.4,29.04-16.94,43.03 c-7.28-0.59-14.23-3.7-21.7-2.91c-5.93-2.02-12.14-2.51-18.27-3.42c-7.27-2.73-14.94-3.48-22.56-4.45 c-6.39-1.03-12.79-2.06-19.18-3.08c-5.14-2-10.5-2.73-15.98-2.84c-4.58-1-9.16-2-13.75-3c-3.5-0.56-7-1.12-10.5-1.69 c2.86-5.38,5.86-10.69,8.54-16.16c1.87-3.8,4.98-7.05,5.38-11.54c0.3,0,0.43-0.15,0.4-0.44c4.33-5.26,7.18-11.34,9.8-17.56 c3.94-5.66,7.14-11.73,9.88-18.05c5.91-8.4,10.15-17.75,15.01-26.74c6.28-11.62,13.2-22.91,18.57-35.02 c7.49-12.29,14.41-24.9,20.67-37.86c8.49-13.63,15.83-27.89,22.99-42.24c7.76-13.09,15.19-26.36,21.84-40.06 c2.57-2.47,3.7-5.81,5.27-8.88c1.14-2.23,2.48-3.56,5.34-3.46c11.09,0.37,22.2,0.36,33.29,0.75c2.69,0.09,4.1-0.44,4.33-3.24 c0.73-9.06,1.51-18.11,2.27-27.17c0.61-1.64,0.59-3.33,0.37-5.04c2.5-12.19,2.46-24.64,3.73-36.96c0.08-1.01,0.16-2.03,0.24-3.04 c1.08-2.24,1.02-4.59,0.71-6.97c0.11-1.34,0.23-2.67,0.34-4.01c1.39-7.94,2.04-15.96,2.49-23.99c0.63-1.97,0.66-3.99,0.47-6.02 c0.25-0.77,0.65-1.53,0.73-2.33c3.31-33.95,6.62-67.9,9.88-101.85c1.05-10.91,1.94-21.83,2.91-32.74c0.64-1.66,0.62-3.37,0.4-5.1 c2.12-11.87,2.8-23.88,3.58-35.89c0.71-1.65,0.63-3.36,0.45-5.09c2.01-12.23,2.93-24.58,3.65-36.94c0.11-1.35,0.23-2.71,0.34-4.06 c0.27-1.28,0.65-2.55,0.78-3.85c1.66-16.15,3.38-32.3,4.9-48.46c1.15-12.19,2.04-24.41,3.04-36.61c0.07-0.69,0.13-1.39,0.2-2.08 c1.34-1.86,1.02-3.89,0.61-5.93c0.68-1.63,0.7-3.33,0.49-5.05c1.63-8.91,2.27-17.92,2.64-26.96c0.1-1.01,0.2-2.03,0.29-3.04 c1.32-1.87,1.01-3.91,0.66-5.96c0.11-1.36,0.21-2.72,0.32-4.07c1.8-3.1,0.2-6.75,1.57-9.92c3.46,0.34,6.92,0.74,10.39,1.02 c9.25,0.74,18.54,1.13,27.75,2.21c14.48,1.69,29.03,2.58,43.54,3.86c8.25,0.72,16.48,1.62,24.75,2.2 c13.7,0.97,27.36,2.52,41.05,3.72c9.24,0.81,18.5,1.41,27.75,2.19c3.72,0.31,5.79,1.62,5.47,6.24c-1.02,14.73-1.09,29.54-2.36,44.24 c-0.59,6.82-0.4,13.61-0.85,20.4c-1.27,19.52-2.86,39.02-3.77,58.55c-0.6,12.93-1.37,25.85-1.98,38.77 c-1.16,24.53-2.7,49.03-4,73.54c-0.97,18.22-1.86,36.44-3.06,54.65c-1.23,18.7-2.28,37.43-2.98,56.16 c-0.46,12.28-1.59,24.52-1.89,36.77c-0.39,15.78-2.06,31.48-2.48,47.26c-0.21,7.92-0.53,15.91-1.1,23.86 c-0.74,10.42-1.14,20.87-1.66,31.31c-0.13,2.5,0.89,3.4,3.35,2.37c0.88-0.37,1.86-0.66,2.86,0.04c-1.13,1.54-2.77,2.32-4.37,3.15 c-16.68,8.68-33.32,17.42-50.06,25.99c-2.93,1.5-4.25,2.9-3.28,6.51c9.75,36.19,19.28,72.44,28.96,108.65 c7.97,29.8,16.12,59.55,24.06,89.36c3.63,13.61,6.94,27.3,10.4,40.95c-1.76,0.34-3.57,0.5-5.26,1.05c-3.67,1.21-8-0.23-11.18,2.85 c-8.78-0.18-17.23,1.76-25.62,4.08c-9.89-0.52-19.36,1.82-28.81,4.25c-7.55,1.14-15.1,2.28-22.65,3.42 c-6.67,0.41-13.29,1.07-19.65,3.32c-6.18,0.99-12.51,1.13-18.52,3.1C369.63,1262.65,364.21,1264.49,358.68,1265.41z"/> <path class="st1" d="M233.12,1228.32c6.55-13.99,11.37-28.66,16.95-43.03c18.02-46.45,35.92-92.94,53.77-139.45 c9.28-24.18,18.36-48.45,27.55-72.67c2.36-6.21,4.83-12.38,7.2-18.58c0.99-2.58,2.23-4.02,5.11-2.07 c20.07,13.57,40.16,27.1,60.24,40.66c0.36,0.24,0.56,0.71,0.98,1.26c-12.51,6.21-24.76,12.48-37.22,18.32 c-2.83,1.33-3.59,2.84-3.55,5.63c0.28,18.8-0.76,37.58-1.27,56.35c-0.4,14.63,0.25,29.3-0.9,43.86c-1.09,13.81,0.2,27.65-1.02,41.37 c-0.9,10.08,0.19,20.25-1.76,30.24c0,0,0,0,0,0c-1.04,0.52-1.07,1.36-0.76,2.32c-4.11,15.94-8.23,31.88-12.32,47.83 c-0.41,1.59-0.63,3.24-0.93,4.85c-0.66,2.04-1.66,4.05-1.9,6.14c-0.54,4.72-2.76,6.18-7.57,6c-16.6-0.6-33.22-0.68-49.84-1 c-20.76-0.4-41.51-0.83-62.27-1.25c0.95-2.62,1.99-5.22,2.84-7.87C228.53,1240.88,232.34,1235.13,233.12,1228.32z"/> <path class="st2" d="M393.89,1260.22c6.35-2.26,12.98-2.91,19.64-3.33c0.92,9.14,1.85,18.29,2.78,27.43 c-3.71,0.69-7.43,1.37-11.14,2.06c-1.01,0.07-2.01,0.13-3.02,0.2c-0.83-0.21-1.59-0.11-2.24,0.5c-1.54,0-3.08-0.01-4.62-0.01 C394.83,1278.12,394.36,1269.17,393.89,1260.22z"/> <path class="st3" d="M393.89,1260.22c0.47,8.95,0.94,17.9,1.4,26.85c-6.7,1.47-13.48,2.37-20.32,2.82 c0.13-8.86,0.26-17.71,0.39-26.57C381.39,1261.35,387.71,1261.21,393.89,1260.22z"/> <path class="st2" d="M375.37,1263.32c-0.13,8.86-0.26,17.71-0.39,26.57c-4.6,0.7-9.2,1.36-13.79,2.12 c-2.19,0.36-3.33,0.17-3.19-2.64c0.4-7.98,0.47-15.97,0.67-23.96C364.21,1264.49,369.63,1262.65,375.37,1263.32z"/> <path class="st0" d="M358.45,1192.53c-0.3-0.96-0.27-1.81,0.76-2.32C359.53,1191.17,359.38,1191.98,358.45,1192.53z"/> <path class="st1" d="M581.45,43.02c12.84,5.48,25.68,10.98,38.53,16.44c1.67,0.71,3.42,1.2,5.13,1.8c0,0,0.12,0.05,0.12,0.05 c6.35,3.53,13.08,6.19,19.89,8.66c4.74,2.67,9.71,4.79,14.89,6.43c0.33,0.18,0.67,0.35,1,0.53c0.4,0.14,0.8,0.27,1.2,0.41 c14,6.85,28.39,12.79,42.88,18.49c0.34,0.17,0.68,0.35,1.02,0.52c0.3,0.18,0.6,0.35,0.9,0.53c3.64,1.57,7.04,3.76,11.02,4.51 c22.37,10.52,45.19,20.03,68.02,29.51c0.4,0.14,0.8,0.28,1.2,0.42c0.25,0.2,0.49,0.41,0.74,0.61c2.68,1.14,5.37,2.28,8.05,3.43 c2.11,1.61,1.51,3.9,1.41,5.99c-1.6,33.37-3.27,66.74-4.87,100.12c-0.78,16.26-1.46,32.52-2.19,48.78 c-0.06,1.39-0.11,2.78-0.17,4.17c-1.26,11.91-1.73,23.85-1.82,35.82c-0.03,0.74-0.06,1.48-0.09,2.22 c-1.32,12.21-1.66,24.46-1.83,36.73c-0.6,1.38-0.48,2.81-0.23,4.24c-1.44,11.36-1.39,22.8-1.96,34.21c-0.16,3.2-1.32,4.34-4.22,4.78 c-10.66,1.62-21.31,3.29-31.94,5.1c-15.02,2.56-30.02,5.26-45.02,7.9c-0.7,0.09-1.4,0.18-2.1,0.27 c-10.01,1.59-20.02,3.18-30.03,4.75c-1.68,0.26-2.79,0.97-2.77,2.87c0.05,5.66-1.38,11.24-0.78,16.93 c-0.06,1.39-0.11,2.77-0.17,4.16c-0.99,9.26-1.66,18.53-1.71,27.85c-0.04,1.03-0.07,2.07-0.11,3.1c-0.23,0.3-0.25,0.62-0.06,0.94 c-0.05,1.36-0.1,2.73-0.15,4.09c-0.47,5.96-1.03,11.91-1.38,17.88c-2.23,38.05-4.53,76.11-6.53,114.17 c-0.68,12.95-2.05,25.87-1.79,38.87c-0.61,1.33-0.54,2.7-0.24,4.09c-1.65,15.9-2.18,31.86-2.8,47.81c-0.07,1.39-0.15,2.78-0.22,4.16 c-0.23,1.79-0.58,3.58-0.68,5.38c-1.27,22.22-2.53,44.44-3.74,66.66c-0.81,14.91-1.53,29.82-2.29,44.73 c-0.06,1.42-0.13,2.84-0.19,4.26c-1.85,14.53-1.52,29.2-2.89,43.75c-0.29,3.06,1.33,2.67,3.4,2.13c8.85-2.31,17.76-4.39,26.57-6.82 c3.69-1.02,5.64-0.37,7.23,3.44c3.07,7.34,6.78,14.41,10.23,21.59c4.99,12.2,10.82,24,16.56,35.85c-0.21,0.72,0.05,1.22,0.72,1.54 l0.13,0.33c0.23,0.38,0.45,0.76,0.68,1.14l-0.02-0.01c5.9,14.11,12.15,28.05,19.19,41.64c0.2,0.47,0.41,0.95,0.61,1.42 c-0.06,0.09-0.12,0.19-0.19,0.28c0.17,0.1,0.35,0.21,0.52,0.31c0.22,0.48,0.45,0.96,0.67,1.44l-0.09,0.44l0.37,0.29 c1.81,4.05,3.61,8.09,5.42,12.14c0.2,0.25,0.4,0.5,0.61,0.75c0.22,0.44,0.43,0.88,0.65,1.32c2.41,7.45,6.14,14.32,9.47,21.35 c6.68,14.07,12.41,28.59,19.89,42.28c0.16,0.41,0.32,0.81,0.47,1.22c0.3,1.94,1.01,3.69,2.42,5.1c0.35,0.77,0.7,1.54,1.05,2.31 l-0.19,0l0.23,0.05c0.39,0.86,0.78,1.73,1.17,2.59c-0.14,0.79,0.23,1.33,0.84,1.76c0.16,0.39,0.32,0.79,0.48,1.18 c2.11,4.84,4.07,9.75,6.37,14.5c1.19,2.45,0.37,3.55-1.71,4.67c-3.04,1.64-6.54,2.4-9.13,4.87c-0.38,0.15-0.76,0.3-1.14,0.45 c-0.51-0.15-0.76,0.07-0.8,0.57l-0.11,0.08c-17.51,7.86-34.62,16.54-51.52,25.62c-0.53,0.29-1.06,0.57-1.59,0.86 c-0.26,0.14-0.52,0.28-0.79,0.42c-0.36,0.15-0.72,0.3-1.08,0.45c-1.24,0.02-2.24,0.5-2.94,1.55c-0.35,0.14-0.7,0.28-1.06,0.42 c-5.22,2.11-10.26,4.57-15.04,7.54c-0.31,0.16-0.63,0.33-0.94,0.49c-1,0.49-2.38,0.24-2.96,1.54c-0.38,0.15-0.76,0.3-1.14,0.46 c-0.52-0.17-0.75,0.07-0.82,0.56c0,0-0.08,0.05-0.08,0.05c-7.57,3.14-14.9,6.77-21.96,10.94c-1.23,0.06-2.19,0.66-3.05,1.48 c-0.92,0.2-1.85,0.39-2.77,0.59c-1.85-9.45-3.14-19.03-6.32-28.19c-0.53-3.42-0.9-6.88-1.62-10.26c-4.06-19.1-8.22-38.18-12.3-57.28 c-6.26-29.29-12.56-58.57-18.61-87.89c-0.89-4.31-2.19-4.85-5.85-2.76c-9.66,5.53-19.47,10.78-29.19,16.19 c-14.66,8.15-29.28,16.37-43.96,24.48c-3.07,1.69-3.6,3.38-1.94,6.71c5.56,11.14,10.65,22.51,16.03,33.74 c12.93,26.99,25.97,53.92,38.78,80.97c1.22,2.58,2.73,3.42,5.2,3.46c-1.1,0.76-3.23,0.85-2.11,3.08c4.29,8.6,7.63,17.68,12.96,25.75 c1.85,5.59,4.66,10.74,7.33,15.96c-0.91,1.2-1.82,2.39-2.73,3.59c0,0-0.42,0.02-0.42,0.02l-0.14,0.41l-0.26,0.19 c-0.3,0.27-0.6,0.53-0.89,0.8l-0.12,0.11c-0.3,0.29-0.6,0.57-0.91,0.86c-2.07,1.24-3.87,2.76-5.23,4.78 c-3.91,2.65-7.41,5.76-10.55,9.29c-0.44,0.38-0.88,0.76-1.31,1.14c-0.28,0.27-0.56,0.53-0.84,0.8c-0.39,0.36-0.79,0.71-1.18,1.07 c-1.03,0.25-1.8,0.79-2.09,1.86c-1.54,0.84-2.94,1.83-3.84,3.39c-4.67,3.52-9.1,7.31-13.01,11.67l-0.06,0.04 c-1.21,0.24-2.04,0.94-2.51,2.08c-0.35,0.02-0.53,0.21-0.54,0.56l-0.24-0.07l0.13,0.17c-0.64,0.55-1.28,1.09-1.92,1.64 c-0.2,0.2-0.41,0.4-0.61,0.61l-0.26,0.02l-0.02,0.26c-0.25,0.24-0.49,0.48-0.74,0.72l-0.22,0.2c-5.51,4.08-10.61,8.63-15.28,13.65 c-0.62,0.51-1.24,1.02-1.86,1.53c-0.22,0.2-0.44,0.4-0.66,0.6c-0.42,0.38-0.84,0.76-1.25,1.15c-0.59-0.02-0.87,0.28-0.89,0.85 l-0.09,0.1c-6.28,4.74-12.13,9.96-17.54,15.67c-0.29-0.06-0.45,0.06-0.49,0.35c-3.86,3.13-7.72,6.26-11.57,9.39 c-0.58-2.08-1.13-4.16-1.74-6.22c-2.3-7.75-3.41-15.84-6.78-23.27c-3.46-13.65-6.78-27.34-10.4-40.95 c-7.94-29.81-16.09-59.56-24.06-89.36c-9.68-36.21-19.21-72.46-28.96-108.65c-0.97-3.61,0.35-5.01,3.28-6.51 c16.73-8.57,33.38-17.31,50.06-25.99c1.6-0.83,3.25-1.61,4.37-3.15c-1-0.7-1.98-0.41-2.86-0.04c-2.46,1.03-3.47,0.13-3.35-2.37 c0.53-10.44,0.92-20.89,1.66-31.31c0.57-7.95,0.89-15.93,1.1-23.86c0.42-15.78,2.09-31.47,2.48-47.26 c0.3-12.25,1.43-24.5,1.89-36.77c0.7-18.73,1.75-37.45,2.98-56.16c1.19-18.21,2.09-36.43,3.06-54.65c1.3-24.52,2.84-49.02,4-73.54 c0.61-12.93,1.38-25.84,1.98-38.77c0.9-19.53,2.5-39.04,3.77-58.55c0.44-6.79,0.26-13.58,0.85-20.4 c1.27-14.71,1.34-29.51,2.36-44.24c0.32-4.62-1.75-5.93-5.47-6.24c-9.25-0.78-18.51-1.37-27.75-2.19 c-13.69-1.2-27.35-2.75-41.05-3.72c-8.27-0.58-16.5-1.48-24.75-2.2c-14.51-1.28-29.06-2.16-43.54-3.86 c-9.21-1.08-18.5-1.47-27.75-2.21c-3.47-0.28-6.92-0.67-10.38-1.02c0.58-6.01,1.17-12.02,1.75-18.04c1.01-0.72,1.55-1.86,3.28-1.72 c12.99,0.99,25.99,1.79,39.02,1.85c1.63,0.01,3.26,0.48,4.9,0.51c5.96,0.09,12.02,1.87,17.84-0.85c1.28,0.17,2.57,0.34,3.85,0.51 c-0.58,1.27-0.19,1.77,1.22,1.76c14.44-0.09,28.82,1.39,43.23,1.93c12.59,0.47,25.16,1.34,37.74,1.89c20.71,0.9,41.4,1.97,62.1,3.11 c7.91,0.44,7.91,0.18,8.7-7.73c0.17-1.64,0.79-3.26,0.81-4.89c0.24-18.09,1.03-36.16,2.01-54.23c0.83-15.24,1.23-30.5,1.87-45.75 c0.77-18.4,1.34-36.82,2.06-55.23c0.59-14.92,1.38-29.83,1.94-44.74c0.7-18.74,1.41-37.49,2.06-56.23 c0.57-16.58,1.19-33.16,2.02-49.74c1.03-20.56,1.55-41.14,2.09-61.72c0.19-7.3,1.59-14.54,1.05-21.87 C580.04,44.86,580.4,43.77,581.45,43.02z"/> <path class="st2" d="M468.56,1277.5c-7.82,1.16-15.64,2.33-23.46,3.49c-0.93,0-1.86,0-2.79,0c-2.04-9.17-4.08-18.34-6.12-27.51 c9.46-2.43,18.92-4.77,28.82-4.25C466.19,1258.65,467.37,1268.08,468.56,1277.5z"/> <path class="st3" d="M468.56,1277.5c-1.18-9.42-2.37-18.85-3.55-28.27c8.39-2.32,16.83-4.26,25.62-4.08 c1.83,7.94,3.85,15.84,5.4,23.84c0.63,3.27,2.04,4.63,5.23,4.34C490.36,1274.72,479.46,1276.11,468.56,1277.5z"/> <path class="st3" d="M151.42,1214.45c6.39,1.03,12.79,2.06,19.18,3.08c-2.39,10.49-4.79,20.99-7.18,31.48 c-6.03-0.53-12.07-1.05-18.1-1.58c-1.62-0.7-3.72,0.43-5.05-1.35C142.98,1235.19,147.65,1224.98,151.42,1214.45z"/> <path class="st3" d="M436.19,1253.47c2.04,9.17,4.08,18.34,6.12,27.51c-5.7,0.89-11.4,1.78-17.1,2.67c-2.97,0.22-5.93,0.44-8.9,0.66 c-0.93-9.15-1.86-18.29-2.78-27.43C421.09,1255.75,428.64,1254.61,436.19,1253.47z"/> <path class="st2" d="M163.42,1249.02c2.39-10.49,4.78-20.99,7.18-31.48c7.62,0.97,15.29,1.72,22.56,4.45 c-3.63,9.75-7.26,19.51-10.89,29.26c-5.67-0.53-11.34-1.06-17.01-1.58C164.65,1249.45,164.04,1249.23,163.42,1249.02z"/> <path class="st2" d="M223.62,1255.12c-2.83,2.34-5.78,0.21-8.63,0.08c-3.79-0.17-7.54-1.04-11.31-1.6 c2.58-9.39,5.17-18.79,7.75-28.18c7.47-0.79,14.41,2.32,21.7,2.91c-0.79,6.81-4.6,12.56-6.66,18.93 C225.61,1249.9,224.57,1252.5,223.62,1255.12z"/> <path class="st3" d="M211.43,1225.41c-2.58,9.39-5.17,18.79-7.75,28.18c-7.15-0.63-14.36-0.74-21.41-2.34 c3.63-9.75,7.26-19.51,10.89-29.26C199.29,1222.91,205.5,1223.39,211.43,1225.41z"/> <path class="st2" d="M151.42,1214.45c-3.77,10.53-8.44,20.74-11.15,31.65c-5.04,0.77-9.93-1.67-14.98-0.71 c-0.77-0.3-1.78,0-2.28-0.95c0.24-3.05,1.84-5.63,2.88-8.4c3.09-8.18,7.26-15.93,9.55-24.43 C140.92,1211.72,146.28,1212.45,151.42,1214.45z"/> <path class="st2" d="M501.26,1273.33c-3.19,0.29-4.6-1.07-5.23-4.34c-1.55-7.99-3.57-15.9-5.4-23.84c3.17-3.08,7.51-1.64,11.18-2.85 c1.69-0.55,3.5-0.71,5.26-1.05c3.36,7.44,4.48,15.53,6.78,23.27c0.61,2.06,1.16,4.15,1.74,6.22 C511.05,1273,506.04,1272.53,501.26,1273.33z"/> <path class="st3" d="M135.44,1211.61c-2.29,8.49-6.46,16.25-9.55,24.43c-1.05,2.77-2.65,5.35-2.88,8.4 c-5.9-0.28-11.71-1.77-17.66-1.37c-0.07-0.26-0.11-0.52-0.11-0.79c6.01-10.97,11.22-22.32,16.46-33.67 C126.28,1209.61,130.86,1210.61,135.44,1211.61z"/> <path class="st2" d="M121.7,1208.61c-5.24,11.34-10.45,22.7-16.46,33.67c-4.14-0.43-8.28-0.85-12.41-1.28 c3.33-6.55,6.67-13.11,10-19.66c2.79-4.8,5.58-9.61,8.37-14.41C114.7,1207.48,118.2,1208.04,121.7,1208.61z"/> <path class="st0" d="M407.36,439.02c-5.83,2.73-11.88,0.95-17.84,0.85c-1.63-0.03-3.26-0.5-4.9-0.51 c-13.03-0.05-26.04-0.85-39.02-1.85c-1.72-0.13-2.27,1.01-3.28,1.72c-0.17,0.16-0.38,0.27-0.61,0.32c0.6-2.42-0.89-2.38-2.53-2.15 c-2.95-1-5.95-1.05-8.97-0.38c-1.61-0.76-3.27-0.67-4.95-0.27c-1.15-0.16-2.29-0.39-3.44-0.46c-13.1-0.79-26.2-1.69-39.31-2.3 c-19.42-0.9-38.84-1.59-58.27-2.36c-2.67-0.09-5.34-0.18-8.01-0.27c-6.81-1.63-6.65-1.61-5.77-9.06c0.9-7.64,1.45-15.32,2.16-22.98 c0.79-1.95,0.75-3.99,0.59-6.03c1.02-1.56,0.96-3.26,0.64-5c0.1-1.01,0.19-2.03,0.29-3.04c1.47-7.93,2.65-15.89,2.82-23.97 c0.35-3.69,0.69-7.38,1.04-11.07c1.42-2.16,1.1-4.55,0.92-6.92c0.03-0.66,0.06-1.31,0.09-1.97c1.77-10.26,3.18-20.55,3.48-30.97 c0.85-1.63,0.77-3.37,0.6-5.12c0.84-6.24,1.82-12.46,2.5-18.71c1.13-10.39,2.07-20.79,3.09-31.19c0.65-1.63,0.69-3.33,0.49-5.04 c1.02-1.56,0.96-3.26,0.63-4.99c0.08-1.02,0.16-2.05,0.24-3.07c1.67-7.55,2.27-15.24,2.8-22.93c0.39-4.36,0.78-8.73,1.18-13.09 c2.3-13.54,3.95-27.16,4.68-40.88c0.62-1.31,0.65-2.66,0.33-4.04c1.98-10.56,3.23-21.19,3.64-31.93c0.12-1.04,0.24-2.08,0.36-3.12 c1.4-5.61,1.68-11.38,2.19-17.1c0.35-3.91,1.62-6.14,6.05-6.68c5.35-0.65,10.79-1.32,15.91-3.25c1.01-0.16,2.03-0.32,3.04-0.48 c1.13,0.45,2.12,0.32,2.91-0.67c2.7-0.39,5.39-0.78,8.09-1.18c8.05-1.29,16.12-2.45,23.97-4.71c1.08,0.26,2.09,0.11,3.02-0.53 c0.76,0.47,1.42,0.29,2.01-0.32c1-0.16,1.99-0.33,2.99-0.49c1.1,0.34,2.14,0.43,2.98-0.58c1.41,0.12,2.77,0.03,4.02-0.73 c0.76,0.48,1.4,0.32,1.95-0.35c1.08,0.15,2.13,0.18,3.05-0.57c13.43-1.93,26.83-4.07,40.02-7.34c0.99-0.1,1.98-0.21,2.96-0.31 c3.13,0.14,6.08-0.57,8.93-1.8c0.69-0.1,1.37-0.21,2.06-0.31c10.06-1.46,20.1-3.02,29.96-5.58c1.01-0.16,2.02-0.33,3.03-0.49 c2.78,0.17,5.43-0.37,7.97-1.52c1.02-0.19,2.05-0.38,3.07-0.57c1.61-0.18,3.25-0.24,4.83-0.55c15.35-3.02,30.91-4.92,46.09-8.85 c1.42,0.15,2.8,0.1,4.07-0.67c9.78-1,19.37-3.09,28.92-5.31c1.4,0.17,2.75,0.01,4.01-0.68c2.45,0.21,4.79-0.19,6.98-1.32 c1.01-0.15,2.03-0.3,3.04-0.45c10-1.75,20.11-2.9,29.93-5.6c0.68-0.09,1.35-0.18,2.03-0.27c3.45,0.18,6.73-0.59,9.91-1.87 c0.69-0.16,1.39-0.32,2.08-0.49c4.8,0.07,9.39-1.02,13.91-2.54c0.71,0.01,1.43,0.03,2.14,0.04c0.14,0.29,0.24,0.59,0.3,0.91 c-1.05,0.76-1.41,1.84-1.32,3.06c0.54,7.33-0.86,14.57-1.05,21.87c-0.54,20.58-1.06,41.17-2.09,61.72 c-0.83,16.58-1.44,33.15-2.02,49.74c-0.65,18.75-1.36,37.49-2.06,56.23c-0.56,14.91-1.35,29.82-1.94,44.74 c-0.73,18.41-1.29,36.83-2.06,55.23c-0.64,15.25-1.05,30.51-1.87,45.75c-0.98,18.07-1.77,36.14-2.01,54.23 c-0.02,1.63-0.64,3.25-0.81,4.89c-0.8,7.91-0.79,8.16-8.7,7.73c-20.7-1.14-41.39-2.21-62.1-3.11c-12.58-0.55-25.15-1.43-37.74-1.89 c-14.41-0.54-28.79-2.02-43.23-1.93c-1.41,0.01-1.8-0.49-1.22-1.76c1.32,0.05,2.64,0.1,3.96,0.15c3.42,1.44,6.94,0.52,10.42,0.44 c4.65,0.02,9.31-0.14,13.95,0.12c3.25,0.18,4.66-0.61,4.93-4.21c1.4-19.06,3.08-38.09,4.65-57.13c1.86-22.52,3.67-45.04,5.61-67.55 c0.48-5.58,0.31-5.8-5.4-5.67c-15.45,0.34-30.9,0.42-46.34,0.86c-3.66,0.1-4.06-1.45-3.82-4.41c0.54-6.61,1.32-13.22,0.96-19.87 c8.52,0.52,16.86-1.19,25.27-2.03c28.31-2.81,56.59-5.88,84.9-8.69c3-0.3,3.78-1.35,4.07-4.2c2.41-23.84,5.02-47.65,7.52-71.48 c2.07-19.69,4.12-39.39,6.11-59.09c0.59-5.85,0.48-5.84-5.47-5.02c-8.89,1.22-17.79,2.46-26.69,3.62 c-26.55,3.47-53.1,6.95-79.67,10.32c-3.37,0.43-4.75,1.69-4.93,5.31c-0.51,10.3-1.42,20.59-2.3,30.87 c-2.88,33.49-5.82,66.98-8.74,100.47c-26.12,0.73-52.23,1.41-78.35,2.23c-3.34,0.11-3.82-1.27-3.59-4.15 c1.86-23.06,3.63-46.13,5.4-69.2c1.22-15.93,2.42-31.87,3.59-47.8c0.14-1.88,0.89-4.1-2.76-3.54c-21.21,3.23-42.44,6.34-63.69,9.33 c-2.8,0.39-3.44,1.61-3.66,4.15c-3.28,36.47-6.57,72.93-10.14,109.37c-0.47,4.8,0.88,5.39,5.19,5.16 c20.6-1.11,41.23-1.83,61.84-2.81c2.98-0.14,4.2,0.65,4.14,3.79c-0.09,5.16,0.05,10.33,0.33,15.48c0.17,3.05-0.91,3.97-3.96,4.02 c-11.15,0.19-22.29,0.79-33.44,0.98c-2.99,0.05-3.96,0.91-4.14,3.93c-0.95,15.62-2.17,31.22-3.23,46.83 c-1.49,21.92-2.93,43.85-4.4,65.77c-0.19,2.79-0.41,5.13,3.71,5.41c9.96,0.67,19.9,1.69,29.82,2.8c3.05,0.34,3.99-0.76,4.58-3.59 c1.83-8.79,4.11-17.48,5.97-26.27c0.63-2.95,1.86-4.13,4.96-4.15c27.64-0.18,55.27-0.45,82.9-0.8c2.92-0.04,4.04,0.71,4.17,3.86 C405.92,415.09,406.7,427.05,407.36,439.02z"/> <path class="st2" d="M407.36,439.02c-0.66-11.97-1.44-23.93-1.91-35.9c-0.12-3.15-1.24-3.9-4.17-3.86 c-27.63,0.35-55.27,0.63-82.9,0.8c-3.09,0.02-4.33,1.21-4.96,4.15c-1.87,8.78-4.14,17.48-5.97,26.27c-0.59,2.84-1.53,3.93-4.58,3.59 c-9.92-1.11-19.86-2.13-29.82-2.8c-4.12-0.28-3.89-2.62-3.71-5.41c1.47-21.92,2.9-43.85,4.4-65.77c1.06-15.61,2.28-31.21,3.23-46.83 c0.18-3.02,1.15-3.88,4.14-3.93c11.15-0.19,22.29-0.79,33.44-0.98c3.05-0.05,4.13-0.97,3.96-4.02c-0.29-5.15-0.43-10.32-0.33-15.48 c0.06-3.14-1.16-3.93-4.14-3.79c-20.61,0.98-41.24,1.7-61.84,2.81c-4.31,0.23-5.67-0.35-5.19-5.16 c3.57-36.44,6.86-72.91,10.14-109.37c0.23-2.54,0.86-3.76,3.66-4.15c21.25-2.99,42.47-6.1,63.69-9.33c3.65-0.56,2.9,1.67,2.76,3.54 c-1.17,15.94-2.36,31.87-3.59,47.8c-1.77,23.07-3.54,46.14-5.4,69.2c-0.23,2.88,0.25,4.25,3.59,4.15 c26.11-0.82,52.23-1.51,78.35-2.23l-0.07-0.08c0.36,6.66-0.42,13.26-0.96,19.88c-0.24,2.95,0.16,4.51,3.82,4.41 c15.44-0.44,30.9-0.53,46.34-0.86c5.71-0.12,5.88,0.1,5.4,5.67c-1.94,22.51-3.75,45.03-5.61,67.55 c-1.57,19.04-3.25,38.08-4.65,57.13c-0.26,3.6-1.68,4.39-4.93,4.21c-4.64-0.26-9.3-0.1-13.95-0.12c-3.42-1.36-6.93-0.6-10.42-0.44 c-1.32-0.05-2.64-0.1-3.96-0.15C409.93,439.36,408.64,439.19,407.36,439.02z"/> <path class="st0" d="M597.54,1136.46c-2.48-0.04-3.98-0.88-5.2-3.46c-12.81-27.05-25.85-53.98-38.78-80.97 c-5.38-11.23-10.47-22.6-16.03-33.74c-1.67-3.34-1.13-5.02,1.94-6.71c14.68-8.11,29.3-16.33,43.96-24.48 c9.73-5.41,19.53-10.66,29.19-16.19c3.66-2.1,4.96-1.55,5.85,2.76c6.06,29.33,12.36,58.61,18.61,87.89 c4.08,19.1,8.24,38.18,12.3,57.28c0.72,3.38,1.09,6.84,1.62,10.26c-7.99,1.57-16.34,1.11-24.06,4.21 c-7.5-0.33-14.69,1.83-22.04,2.68C602.45,1136.16,600,1136.31,597.54,1136.46z"/> <path class="st2" d="M626.94,1133.33c7.72-3.1,16.07-2.64,24.06-4.22c3.17,9.16,4.47,18.73,6.32,28.19 c-0.18,0.26-0.29,0.54-0.35,0.85c-1.32,0.18-2.63,0.36-3.95,0.53c-0.77-0.21-1.46-0.11-2.03,0.49c-5.96,0.7-11.93,1.39-17.89,2.09 C631.48,1151.85,629.53,1142.52,626.94,1133.33z"/> <path class="st2" d="M611.38,1164.45c-1,0.28-2,0.56-2.99,0.84c-5.33-8.07-8.67-17.15-12.96-25.75c-1.11-2.23,1.02-2.32,2.11-3.08 c2.46-0.15,4.91-0.3,7.36-0.46C607.06,1145.48,609.22,1154.97,611.38,1164.45z"/> <path class="st2" d="M400.19,282.33c2.92-33.49,5.86-66.98,8.74-100.47c0.88-10.28,1.79-20.57,2.3-30.87 c0.18-3.62,1.56-4.88,4.93-5.31c26.56-3.37,53.12-6.85,79.67-10.32c8.9-1.16,17.79-2.4,26.69-3.62c5.95-0.82,6.06-0.83,5.47,5.02 c-1.99,19.7-4.03,39.4-6.11,59.09c-2.51,23.83-5.12,47.64-7.52,71.48c-0.29,2.85-1.07,3.9-4.07,4.2c-28.31,2.8-56.59,5.88-84.9,8.69 c-8.4,0.83-16.75,2.55-25.27,2.03C400.13,282.25,400.19,282.33,400.19,282.33z"/> <path class="st1" d="M415.17,439.68c3.49-0.16,7-0.92,10.42,0.44C422.11,440.2,418.59,441.12,415.17,439.68z"/> <path class="st3" d="M611.38,1164.45c-2.16-9.48-4.32-18.97-6.48-28.45c7.35-0.85,14.55-3,22.04-2.68 c2.58,9.19,4.53,18.53,6.16,27.93c-2.39,1.79-5.53,0.5-8.01,1.93C620.52,1163.61,615.95,1164.03,611.38,1164.45z"/> </svg>