<svg id="SvgjsSvg1001" width="288" height="288" xmlns="http://www.w3.org/2000/svg" version="1.1" xmlns:xlink="http://www.w3.org/1999/xlink" xmlns:svgjs="http://svgjs.com/svgjs"><defs id="SvgjsDefs1002"></defs><g id="SvgjsG1008"><svg xmlns="http://www.w3.org/2000/svg" viewBox="132.33 156.076 60 46.446" width="288" height="288"><path fill="#ff870a" d="M 183.156 159.966 C 179.272 158.148 175.119 156.828 170.778 156.076 C 170.244 157.04 169.621 158.336 169.192 159.368 C 164.577 158.674 160.004 158.674 155.473 159.368 C 155.044 158.336 154.407 157.04 153.869 156.076 C 149.522 156.828 145.365 158.153 141.481 159.975 C 133.647 171.813 131.523 183.357 132.585 194.737 C 137.781 198.617 142.816 200.974 147.767 202.517 C 148.989 200.835 150.079 199.046 151.018 197.162 C 149.23 196.482 147.517 195.643 145.898 194.67 C 146.327 194.352 146.747 194.019 147.153 193.677 C 157.026 198.294 167.753 198.294 177.507 193.677 C 177.918 194.019 178.338 194.352 178.762 194.67 C 177.139 195.648 175.421 196.487 173.633 197.167 C 174.572 199.046 175.657 200.839 176.884 202.522 C 181.839 200.979 186.879 198.622 192.075 194.737 C 193.321 181.545 189.947 170.107 183.156 159.966 Z M 152.363 187.739 C 149.4 187.739 146.969 184.972 146.969 181.603 C 146.969 178.233 149.348 175.462 152.363 175.462 C 155.379 175.462 157.809 178.229 157.757 181.603 C 157.762 184.972 155.379 187.739 152.363 187.739 Z M 172.297 187.739 C 169.334 187.739 166.903 184.972 166.903 181.603 C 166.903 178.233 169.282 175.462 172.297 175.462 C 175.313 175.462 177.743 178.229 177.691 181.603 C 177.691 184.972 175.313 187.739 172.297 187.739 Z" class="color466C2B svgShape"></path></svg></g></svg>