<svg xmlns="http://www.w3.org/2000/svg" version="1.1" viewBox="1 1 666 666">
<path d="M0 0 C61.05 0 122.1 0 185 0 C185 12.21 185 24.42 185 37 C209.42 37 233.84 37 259 37 C259 61.42 259 85.84 259 111 C271.21 111 283.42 111 296 111 C296 172.05 296 233.1 296 296 C283.79 296 271.58 296 259 296 C259 308.21 259 320.42 259 333 C271.21 333 283.42 333 296 333 C296 345.21 296 357.42 296 370 C308.21 370 320.42 370 333 370 C333 382.21 333 394.42 333 407 C345.21 407 357.42 407 370 407 C370 419.21 370 431.42 370 444 C382.21 444 394.42 444 407 444 C407 456.21 407 468.42 407 481 C419.21 481 431.42 481 444 481 C444 493.21 444 505.42 444 518 C456.21 518 468.42 518 481 518 C481 530.21 481 542.42 481 555 C493.21 555 505.42 555 518 555 C518 567.21 518 579.42 518 592 C530.21 592 542.42 592 555 592 C555 616.42 555 640.84 555 666 C530.58 666 506.16 666 481 666 C481 653.79 481 641.58 481 629 C468.79 629 456.58 629 444 629 C444 616.79 444 604.58 444 592 C431.79 592 419.58 592 407 592 C407 579.79 407 567.58 407 555 C394.79 555 382.58 555 370 555 C370 542.79 370 530.58 370 518 C357.79 518 345.58 518 333 518 C333 505.79 333 493.58 333 481 C320.79 481 308.58 481 296 481 C296 468.79 296 456.58 296 444 C283.79 444 271.58 444 259 444 C259 431.79 259 419.58 259 407 C246.79 407 234.58 407 222 407 C222 394.79 222 382.58 222 370 C209.79 370 197.58 370 185 370 C185 382.21 185 394.42 185 407 C123.95 407 62.9 407 0 407 C0 394.79 0 382.58 0 370 C-24.42 370 -48.84 370 -74 370 C-74 345.58 -74 321.16 -74 296 C-86.21 296 -98.42 296 -111 296 C-111 234.95 -111 173.9 -111 111 C-98.79 111 -86.58 111 -74 111 C-74 86.58 -74 62.16 -74 37 C-49.58 37 -25.16 37 0 37 C0 24.79 0 12.58 0 0 Z " fill="#B3EBF4" transform="translate(112,1)"/>
<path d="M0 0 C12.21 0 24.42 0 37 0 C37 12.21 37 24.42 37 37 C49.21 37 61.42 37 74 37 C74 49.21 74 61.42 74 74 C86.21 74 98.42 74 111 74 C111 86.21 111 98.42 111 111 C123.21 111 135.42 111 148 111 C148 123.21 148 135.42 148 148 C160.21 148 172.42 148 185 148 C185 160.21 185 172.42 185 185 C197.21 185 209.42 185 222 185 C222 197.21 222 209.42 222 222 C234.21 222 246.42 222 259 222 C259 234.21 259 246.42 259 259 C271.21 259 283.42 259 296 259 C296 271.21 296 283.42 296 296 C308.21 296 320.42 296 333 296 C333 320.42 333 344.84 333 370 C308.58 370 284.16 370 259 370 C259 357.79 259 345.58 259 333 C246.79 333 234.58 333 222 333 C222 320.79 222 308.58 222 296 C209.79 296 197.58 296 185 296 C185 283.79 185 271.58 185 259 C172.79 259 160.58 259 148 259 C148 246.79 148 234.58 148 222 C135.79 222 123.58 222 111 222 C111 209.79 111 197.58 111 185 C98.79 185 86.58 185 74 185 C74 172.79 74 160.58 74 148 C61.79 148 49.58 148 37 148 C37 135.79 37 123.58 37 111 C24.79 111 12.58 111 0 111 C0 98.79 0 86.58 0 74 C-12.21 74 -24.42 74 -37 74 C-37 61.79 -37 49.58 -37 37 C-24.79 37 -12.58 37 0 37 C0 24.79 0 12.58 0 0 Z " fill="#3E2723" transform="translate(334,297)"/>
<path d="M0 0 C61.05 0 122.1 0 185 0 C185 12.21 185 24.42 185 37 C123.95 37 62.9 37 0 37 C0 24.79 0 12.58 0 0 Z " fill="#3E2723" transform="translate(112,371)"/>
<path d="M0 0 C12.21 0 24.42 0 37 0 C37 61.05 37 122.1 37 185 C24.79 185 12.58 185 0 185 C0 123.95 0 62.9 0 0 Z " fill="#3E2723" transform="translate(371,112)"/>
<path d="M0 0 C12.21 0 24.42 0 37 0 C37 61.05 37 122.1 37 185 C24.79 185 12.58 185 0 185 C0 123.95 0 62.9 0 0 Z " fill="#3E2723" transform="translate(1,112)"/>
<path d="M0 0 C61.05 0 122.1 0 185 0 C185 12.21 185 24.42 185 37 C123.95 37 62.9 37 0 37 C0 24.79 0 12.58 0 0 Z " fill="#3E2723" transform="translate(112,1)"/>
<path d="M0 0 C12.21 0 24.42 0 37 0 C37 24.42 37 48.84 37 74 C12.58 74 -11.84 74 -37 74 C-37 61.79 -37 49.58 -37 37 C-24.79 37 -12.58 37 0 37 C0 24.79 0 12.58 0 0 Z " fill="#3E2723" transform="translate(630,593)"/>
<path d="M0 0 C12.21 0 24.42 0 37 0 C37 12.21 37 24.42 37 37 C49.21 37 61.42 37 74 37 C74 49.21 74 61.42 74 74 C49.58 74 25.16 74 0 74 C0 49.58 0 25.16 0 0 Z " fill="#3E2723" transform="translate(38,297)"/>
<path d="M0 0 C24.42 0 48.84 0 74 0 C74 24.42 74 48.84 74 74 C61.79 74 49.58 74 37 74 C37 61.79 37 49.58 37 37 C24.79 37 12.58 37 0 37 C0 24.79 0 12.58 0 0 Z " fill="#3E2723" transform="translate(297,38)"/>
<path d="M0 0 C24.42 0 48.84 0 74 0 C74 12.21 74 24.42 74 37 C61.79 37 49.58 37 37 37 C37 49.21 37 61.42 37 74 C24.79 74 12.58 74 0 74 C0 49.58 0 25.16 0 0 Z " fill="#3E2723" transform="translate(38,38)"/>
<path d="M0 0 C12.21 0 24.42 0 37 0 C37 24.42 37 48.84 37 74 C24.79 74 12.58 74 0 74 C0 49.58 0 25.16 0 0 Z " fill="#4FC4F7" transform="translate(112,149)"/>
<path d="M0 0 C24.42 0 48.84 0 74 0 C74 12.21 74 24.42 74 37 C49.58 37 25.16 37 0 37 C0 24.79 0 12.58 0 0 Z " fill="#4FC4F7" transform="translate(149,112)"/>
<path d="M0 0 C12.21 0 24.42 0 37 0 C37 12.21 37 24.42 37 37 C24.79 37 12.58 37 0 37 C0 24.79 0 12.58 0 0 Z " fill="#795548" transform="translate(593,593)"/>
<path d="M0 0 C12.21 0 24.42 0 37 0 C37 12.21 37 24.42 37 37 C24.79 37 12.58 37 0 37 C0 24.79 0 12.58 0 0 Z " fill="#3E2723" transform="translate(556,593)"/>
<path d="M0 0 C12.21 0 24.42 0 37 0 C37 12.21 37 24.42 37 37 C24.79 37 12.58 37 0 37 C0 24.79 0 12.58 0 0 Z " fill="#3E2723" transform="translate(593,556)"/>
<path d="M0 0 C12.21 0 24.42 0 37 0 C37 12.21 37 24.42 37 37 C24.79 37 12.58 37 0 37 C0 24.79 0 12.58 0 0 Z " fill="#795548" transform="translate(556,556)"/>
<path d="M0 0 C12.21 0 24.42 0 37 0 C37 12.21 37 24.42 37 37 C24.79 37 12.58 37 0 37 C0 24.79 0 12.58 0 0 Z " fill="#3E2723" transform="translate(519,556)"/>
<path d="M0 0 C12.21 0 24.42 0 37 0 C37 12.21 37 24.42 37 37 C24.79 37 12.58 37 0 37 C0 24.79 0 12.58 0 0 Z " fill="#3E2723" transform="translate(556,519)"/>
<path d="M0 0 C12.21 0 24.42 0 37 0 C37 12.21 37 24.42 37 37 C24.79 37 12.58 37 0 37 C0 24.79 0 12.58 0 0 Z " fill="#795548" transform="translate(519,519)"/>
<path d="M0 0 C12.21 0 24.42 0 37 0 C37 12.21 37 24.42 37 37 C24.79 37 12.58 37 0 37 C0 24.79 0 12.58 0 0 Z " fill="#3E2723" transform="translate(482,519)"/>
<path d="M0 0 C12.21 0 24.42 0 37 0 C37 12.21 37 24.42 37 37 C24.79 37 12.58 37 0 37 C0 24.79 0 12.58 0 0 Z " fill="#3E2723" transform="translate(519,482)"/>
<path d="M0 0 C12.21 0 24.42 0 37 0 C37 12.21 37 24.42 37 37 C24.79 37 12.58 37 0 37 C0 24.79 0 12.58 0 0 Z " fill="#795548" transform="translate(482,482)"/>
<path d="M0 0 C12.21 0 24.42 0 37 0 C37 12.21 37 24.42 37 37 C24.79 37 12.58 37 0 37 C0 24.79 0 12.58 0 0 Z " fill="#3E2723" transform="translate(445,482)"/>
<path d="M0 0 C12.21 0 24.42 0 37 0 C37 12.21 37 24.42 37 37 C24.79 37 12.58 37 0 37 C0 24.79 0 12.58 0 0 Z " fill="#3E2723" transform="translate(482,445)"/>
<path d="M0 0 C12.21 0 24.42 0 37 0 C37 12.21 37 24.42 37 37 C24.79 37 12.58 37 0 37 C0 24.79 0 12.58 0 0 Z " fill="#795548" transform="translate(445,445)"/>
<path d="M0 0 C12.21 0 24.42 0 37 0 C37 12.21 37 24.42 37 37 C24.79 37 12.58 37 0 37 C0 24.79 0 12.58 0 0 Z " fill="#3E2723" transform="translate(408,445)"/>
<path d="M0 0 C12.21 0 24.42 0 37 0 C37 12.21 37 24.42 37 37 C24.79 37 12.58 37 0 37 C0 24.79 0 12.58 0 0 Z " fill="#3E2723" transform="translate(445,408)"/>
<path d="M0 0 C12.21 0 24.42 0 37 0 C37 12.21 37 24.42 37 37 C24.79 37 12.58 37 0 37 C0 24.79 0 12.58 0 0 Z " fill="#795548" transform="translate(408,408)"/>
<path d="M0 0 C12.21 0 24.42 0 37 0 C37 12.21 37 24.42 37 37 C24.79 37 12.58 37 0 37 C0 24.79 0 12.58 0 0 Z " fill="#3E2723" transform="translate(371,408)"/>
<path d="M0 0 C12.21 0 24.42 0 37 0 C37 12.21 37 24.42 37 37 C24.79 37 12.58 37 0 37 C0 24.79 0 12.58 0 0 Z " fill="#3E2723" transform="translate(408,371)"/>
<path d="M0 0 C12.21 0 24.42 0 37 0 C37 12.21 37 24.42 37 37 C24.79 37 12.58 37 0 37 C0 24.79 0 12.58 0 0 Z " fill="#795548" transform="translate(371,371)"/>
</svg>