<svg xmlns="http://www.w3.org/2000/svg" xmlns:xlink="http://www.w3.org/1999/xlink" xmlns:svgjs="http://svgjs.com/svgjs" id="SvgjsSvg1001" version="1.1" viewBox="0 108.97 288 70.05"><defs id="SvgjsDefs1002"/><g id="SvgjsG1008"><svg xmlns="http://www.w3.org/2000/svg" version="1.0" viewBox="327.79 86.37 523.86 127.43" width="288" height="288"><g transform="matrix(.1 0 0 -.1 0 300)" fill="#ff870a" class="color000 svgShape"><path d="M3770 2109c-30-17-128-73-218-125-90-52-165-94-167-94-2 0-24-13-48-30-51-34-57-52-57-172 0-75 11-118 29-118 16 0 31 53 31 112 0 59 0 60 25 54 14-4 58-26 97-49l73-43 3-117c2-92 0-117-11-117-7 0-53 23-101 51-49 28-101 51-115 52-26 2-26 1-31-78-7-104 4-251 20-270 11-13 315-195 326-195 3 0 44-23 91-50 47-28 98-54 114-57 35-7 91 21 366 182 199 116 204 120 214 181 13 79 11 495-3 554-12 53-26 67-113 116-11 6-36 21-55 32-19 12-42 25-50 29-8 4-80 45-160 91-80 46-158 86-175 88-20 2-48-6-85-27zm170-77c47-27 86-56 88-64 2-10-28-33-86-67-49-28-93-51-96-51-13 0-164 91-177 107-12 13-10 18 10 32 37 26 155 90 166 90 6 1 49-21 95-47zm-301-133c118-67 133-79 120-95-10-12-174-114-184-114-11 0-195 113-195 120 0 7 187 120 199 120 2 0 29-14 60-31zm592-31c40-24 74-50 74-57 0-7-42-38-94-67l-93-54-47 27c-25 16-58 34-72 41-14 8-39 24-54 36l-29 23 40 25c92 59 139 79 170 74 16-2 64-24 105-48zm-417-134c8-20 8-172 0-202-4-15-37-40-100-77-51-30-95-55-98-55-3 0-6 54-8 119l-3 120 95 55c52 31 98 56 101 56 4 0 10-7 13-16zm161-30c121-71 115-60 115-186 0-97-2-108-18-108-10 0-22 4-27 9-6 4-35 22-65 38-103 55-97 47-104 139-7 81-1 154 13 154 3 0 42-21 86-46zm375-233l0-269-94-56c-52-31-97-56-100-56-3 0-6 54-6 119l0 119 58 32c71 40 102 68 95 86-8 21-31 17-90-16-29-16-55-30-58-30-3 0-4 55-3 122l3 122 50 29c82 48 119 67 132 67 10 0 13-59 13-269zm-450-38c67-36 80-44 115-70 30-21 30-22 10-37-11-9-55-37-99-62-83-49-82-48-141-12-100 63-125 81-125 91 0 11 165 117 182 117 3 0 30-12 58-27zm-449-54l89-51 0-119c0-66-2-119-4-119-9 0-131 73-163 98l-33 24 0 109c0 74 4 109 11 109 6 0 51-23 100-51zm199-114c7-8 17-15 22-15 5 0 41-19 79-41l69-41 0-109c0-59-4-111-10-114-8-5-107 44-182 90-14 8-17 29-18 120-1 61-1 113-1 118 1 13 28 8 41-8zm438-102l-3-117-82-47c-107-62-119-65-127-37-8 32-7 191 2 204 9 14 183 113 200 113 10 1 12-26 10-116zM6905 1725c-58-15-109-66-125-124-13-49-13-150 2-192 34-102 128-152 239-128 99 21 151 98 151 224 1 126-51 202-152 224-60 13-52 13-115-4zm107-96c27-14 48-69 48-124 0-83-35-135-92-135-84 1-120 171-52 245 25 27 62 32 96 14zM7359 1729c-20-6-52-26-70-45-29-30-34-42-34-82 0-71 23-97 121-142 46-22 84-45 84-53 0-40-67-49-129-18l-37 19-28-34c-15-19-24-39-20-45 15-25 100-52 159-52 105 0 165 52 165 144 0 62-24 90-107 125-82 33-93 41-93 64 0 32 52 40 101 14 28-14 31-14 50 8 41 48 41 53 1 76-46 25-115 34-163 21zM8334 1731c-122-30-192-171-154-311 18-65 80-124 147-139 74-15 149 2 183 44 11 13 9 20-15 45-26 28-29 28-56 15-109-57-189 60-137 198 19 50 92 72 135 42 20-14 23-13 48 16 14 17 24 37 22 43-11 33-114 61-173 47zM4573 1708c4-13 32-114 64-226l58-203 70 3 69 3 53 175c29 96 60 196 68 223l14 47-59 0-58 0-37-157c-21-87-41-164-45-172-7-12-25 55-66 247l-17 82-60 0c-57 0-59-1-54-22zM5020 1505l0-225 55 0 55 0 0 225 0 225-55 0-55 0 0-225zM5240 1505l0-225 140 0 140 0 0 50 0 50-85 0-85 0 0 175 0 175-55 0-55 0 0-225zM5600 1505l0-225 140 0 140 0 0 50 0 50-85 0-85 0 0 175 0 175-55 0-55 0 0-225zM5970 1505l0-225 145 0 145 0 0 50 0 50-90 0-90 0 0 40 0 40 75 0 75 0 0 50 0 50-75 0-75 0 0 35 0 35 85 0 85 0 0 50 0 50-140 0-140 0 0-225zM6350 1506l0-226 55 0 55 0 0 75 0 75 28 0c24 0 32-9 65-75l37-75 64 0 64 0-48 87c-48 84-49 87-30 100 49 34 66 137 33 194-28 47-74 62-205 67l-118 4 0-226zm221 113c5-8 9-26 9-41 0-35-33-58-82-58l-38 0 0 61 0 62 51-5c28-3 55-12 60-19zM7650 1505l0-225 51 0 52 0-5 156-6 156 46-136 45-136 32 0c32 0 33 1 68 98 19 53 38 112 42 129 12 59 21 43 13-25-4-37-7-106-7-154l-1-88 50 0 50 0 0 225 0 225-59 0-59 0-41-116c-23-63-41-122-41-130 0-39-19-2-60 116l-44 130-63 0-63 0 0-225z" fill="#ff870a" class="color000 svgShape"/></g></svg></g></svg>