<svg id="SvgjsSvg1012" width="288" height="288" xmlns="http://www.w3.org/2000/svg" version="1.1" xmlns:xlink="http://www.w3.org/1999/xlink" xmlns:svgjs="http://svgjs.com/svgjs"><defs id="SvgjsDefs1013"></defs><g id="SvgjsG1014"><svg xmlns="http://www.w3.org/2000/svg" viewBox="193.728 158.66 82 92.182" width="288" height="288"><path fill="#ff870a" d="M 232.928 158.892 C 231.678 159.242 200.678 176.842 196.628 179.542 C 194.228 181.142 193.728 182.992 193.728 190.992 C 193.728 198.642 194.078 199.842 196.178 199.842 C 198.178 199.842 198.728 198.292 198.728 192.692 C 198.728 189.742 198.878 187.342 199.078 187.342 C 199.228 187.342 202.378 189.092 206.078 191.192 L 212.728 195.042 L 212.728 203.192 C 212.728 207.692 212.578 211.342 212.428 211.342 C 212.228 211.342 208.528 209.292 204.178 206.792 C 196.378 202.292 196.228 202.242 194.978 203.042 L 193.728 203.842 L 193.728 214.892 C 193.728 227.642 193.928 228.392 197.628 230.742 C 200.428 232.542 228.778 248.842 231.078 250.042 C 231.978 250.492 233.678 250.842 234.878 250.842 C 236.828 250.842 238.678 249.892 249.778 243.542 C 256.778 239.542 264.678 234.992 267.378 233.392 C 272.628 230.442 274.578 228.842 275.278 226.942 C 275.528 226.292 275.728 216.342 275.728 204.742 C 275.728 180.892 275.828 181.442 271.828 178.942 C 268.728 176.992 239.828 160.342 238.228 159.542 C 236.278 158.642 234.628 158.442 232.928 158.892 Z M 242.028 167.392 C 245.428 169.392 248.228 171.142 248.228 171.342 C 248.228 171.542 245.178 173.442 241.478 175.592 L 234.728 179.442 L 227.978 175.592 C 224.228 173.442 221.278 171.492 221.328 171.292 C 221.578 170.492 233.478 163.892 234.678 163.842 C 235.278 163.842 238.628 165.442 242.028 167.392 Z M 222.528 178.192 C 226.228 180.342 229.228 182.192 229.228 182.342 C 229.228 182.492 226.078 184.442 222.278 186.642 L 215.278 190.742 L 208.378 186.742 C 204.578 184.542 201.428 182.692 201.378 182.642 C 201.228 182.492 215.328 174.342 215.678 174.342 C 215.778 174.342 218.878 176.092 222.528 178.192 Z M 261.378 178.542 C 265.178 180.692 268.178 182.542 268.128 182.592 C 268.028 182.692 264.878 184.542 261.078 186.742 L 254.128 190.742 L 251.078 188.892 C 249.378 187.842 246.228 186.042 244.128 184.842 C 241.978 183.642 240.228 182.492 240.228 182.342 C 240.228 181.892 253.428 174.342 253.978 174.492 C 254.278 174.542 257.578 176.342 261.378 178.542 Z M 231.628 203.592 C 231.278 203.942 227.978 205.892 224.378 207.992 L 217.728 211.792 L 217.728 203.442 L 217.728 195.042 L 224.878 190.942 L 231.978 186.842 L 232.128 194.942 C 232.228 200.992 232.078 203.192 231.628 203.592 Z M 243.978 190.592 C 247.278 192.492 250.378 194.342 250.878 194.742 C 251.628 195.392 251.728 196.492 251.728 203.442 C 251.728 207.792 251.578 211.342 251.378 211.342 C 251.128 211.342 247.928 209.592 244.228 207.442 L 237.478 203.542 L 237.328 195.142 C 237.278 190.542 237.378 186.842 237.578 186.992 C 237.828 187.092 240.678 188.742 243.978 190.592 Z M 270.728 206.242 C 270.728 223.642 270.678 225.242 269.878 225.942 C 269.378 226.342 266.228 228.292 262.878 230.242 L 256.728 233.792 L 256.728 225.642 L 256.728 217.492 L 262.228 214.342 C 266.278 212.042 267.828 210.892 268.028 209.992 C 268.378 208.692 267.078 206.842 265.828 206.842 C 265.478 206.842 263.228 207.942 260.928 209.292 L 256.728 211.792 L 256.728 203.442 L 256.728 195.042 L 263.378 191.192 C 266.978 189.092 270.128 187.342 270.378 187.342 C 270.578 187.342 270.728 195.842 270.728 206.242 Z M 241.678 211.742 C 245.328 213.892 248.378 215.792 248.428 216.042 C 248.428 216.242 245.378 218.242 241.628 220.442 L 234.728 224.442 L 227.978 220.542 C 224.278 218.342 221.178 216.392 221.178 216.092 C 221.128 215.692 234.028 207.842 234.728 207.842 C 234.878 207.842 237.978 209.592 241.678 211.742 Z M 212.728 225.642 L 212.728 233.792 L 206.628 230.242 C 203.228 228.292 200.078 226.342 199.628 225.942 C 198.828 225.292 198.728 224.192 198.728 217.292 L 198.728 209.392 L 205.728 213.442 L 212.728 217.492 L 212.728 225.642 Z M 232.228 236.742 C 232.228 241.242 232.078 244.842 231.828 244.742 C 231.628 244.692 228.378 242.842 224.578 240.642 L 217.728 236.742 L 217.728 228.592 L 217.728 220.392 L 224.978 224.492 L 232.178 228.592 L 232.228 236.742 Z M 251.728 228.542 L 251.728 236.742 L 244.878 240.642 C 241.078 242.842 237.828 244.642 237.628 244.742 C 237.378 244.842 237.228 241.242 237.228 236.742 L 237.278 228.592 L 244.378 224.492 C 248.278 222.292 251.528 220.392 251.628 220.392 C 251.678 220.342 251.728 224.042 251.728 228.542 Z" class="color466C2B svgShape"></path></svg></g></svg>