<?xml version="1.0" encoding="utf-8"?>
<svg viewBox="54.282 23.304 53.2 58.03" xmlns="http://www.w3.org/2000/svg">
  <path d="M 78.747 24.109 C 77.697 24.669 71.992 27.679 66.007 30.829 C 60.022 33.944 54.947 36.674 54.737 36.884 C 54.387 37.129 54.282 40.664 54.282 52.354 C 54.282 66.319 54.317 67.509 54.912 67.999 C 55.227 68.314 61.282 71.429 68.317 74.964 L 81.127 81.334 L 93.867 74.579 C 100.867 70.869 106.817 67.579 107.062 67.299 C 107.377 66.879 107.482 63.239 107.482 51.864 C 107.482 43.674 107.342 36.779 107.202 36.569 C 106.957 36.149 82.702 23.724 81.372 23.339 C 80.917 23.199 79.972 23.479 78.747 24.109 Z M 90.752 32.614 C 99.677 37.059 100.552 37.619 99.992 38.039 C 99.397 38.459 98.907 38.284 95.757 36.604 C 93.797 35.554 91.767 34.679 91.277 34.679 C 90.017 34.679 89.212 35.589 89.352 36.919 C 89.457 37.864 89.737 38.144 91.802 39.229 C 93.062 39.894 94.217 40.559 94.357 40.699 C 94.497 40.804 92.887 41.819 90.822 42.939 L 87.077 44.934 L 83.087 42.974 C 80.917 41.854 78.747 40.979 78.292 40.979 C 76.752 40.979 75.947 42.379 76.542 43.954 C 76.682 44.269 78.047 45.144 79.587 45.949 C 81.967 47.139 82.317 47.419 81.792 47.699 C 81.302 47.979 79.097 47.069 71.222 43.219 C 65.762 40.559 61.282 38.284 61.282 38.179 C 61.282 38.074 62.997 37.129 65.062 36.044 L 68.842 34.084 L 72.167 35.764 C 75.877 37.654 77.067 37.864 77.872 36.709 C 78.992 35.134 78.292 34.084 75.142 32.509 L 73.427 31.634 L 77.067 29.709 C 79.062 28.624 80.742 27.749 80.812 27.714 C 80.847 27.679 85.327 29.884 90.752 32.614 Z M 103.282 50.009 L 103.282 58.689 L 100.832 59.879 C 98.312 61.104 97.822 61.734 98.172 63.239 C 98.522 64.569 99.887 64.919 101.532 64.079 C 103.247 63.204 103.352 63.204 103.212 64.149 C 103.142 64.744 101.147 65.934 93.657 69.959 C 88.477 72.724 83.997 75.069 83.787 75.174 C 83.437 75.314 83.332 74.264 83.332 70.589 L 83.332 65.829 L 85.887 64.569 C 88.897 63.064 89.632 62.469 89.632 61.524 C 89.632 59.599 87.497 59.004 85.082 60.229 C 84.312 60.614 83.612 60.929 83.507 60.929 C 83.402 60.929 83.367 58.864 83.402 56.344 L 83.507 51.759 L 93.132 46.579 C 98.417 43.744 102.862 41.399 103.037 41.364 C 103.177 41.329 103.282 45.249 103.282 50.009 Z M 79.132 53.299 C 79.132 54.034 79.062 54.629 78.992 54.629 C 78.922 54.629 77.662 54.069 76.192 53.404 C 74.687 52.739 73.182 52.179 72.832 52.179 C 71.257 52.179 70.452 54.664 71.712 55.749 C 72.027 56.064 73.637 56.869 75.282 57.604 C 76.927 58.339 78.467 59.074 78.712 59.284 C 79.027 59.529 79.132 61.629 79.132 67.614 L 79.132 75.594 L 68.912 70.519 L 58.657 65.444 L 58.552 61.069 L 58.447 56.694 L 60.267 57.604 C 62.402 58.724 63.697 58.654 64.397 57.394 C 64.852 56.554 64.852 56.379 64.292 55.539 C 63.977 55.014 62.542 54.034 61.107 53.334 L 58.482 52.039 L 58.482 46.859 L 58.482 41.679 L 68.807 46.824 L 79.132 52.004 L 79.132 53.299 Z" fill="#466C2B"/>
  <path d="M 79.027 29.709 C 78.257 30.549 78.257 31.984 79.062 32.649 C 79.762 33.279 85.327 35.729 86.027 35.729 C 86.762 35.729 87.882 34.399 87.882 33.524 C 87.882 32.369 87.147 31.809 83.717 30.339 C 80.357 28.904 79.832 28.834 79.027 29.709 Z" fill="#466C2B"/>
  <path d="M 67.687 37.339 C 67.162 38.144 67.162 38.354 67.617 39.159 C 68.247 40.314 71.502 42.029 72.482 41.784 C 72.902 41.679 73.392 41.224 73.602 40.769 C 74.232 39.439 73.672 38.319 71.922 37.339 C 69.787 36.149 68.492 36.149 67.687 37.339 Z" fill="#466C2B"/>
  <path d="M 80.707 36.989 C 80.357 37.339 80.182 38.004 80.252 38.669 C 80.357 39.649 80.637 39.894 83.507 41.294 C 87.497 43.219 88.967 43.464 89.772 42.344 C 90.997 40.559 90.332 39.754 85.887 37.794 C 82.527 36.289 81.582 36.149 80.707 36.989 Z" fill="#466C2B"/>
  <path d="M 98.102 46.754 C 95.862 47.804 95.232 49.344 96.562 50.534 C 97.437 51.304 98.452 51.269 100.132 50.429 C 101.672 49.659 102.197 48.434 101.602 47.139 C 101.077 45.949 100.062 45.844 98.102 46.754 Z" fill="#466C2B"/>
  <path d="M 88.477 52.214 C 84.102 54.419 83.332 55.784 85.607 57.289 C 86.447 57.849 86.587 57.814 90.017 56.169 C 94.322 54.104 95.302 52.949 94.112 51.374 C 93.202 50.219 92.047 50.394 88.477 52.214 Z" fill="#466C2B"/>
  <path d="M 96.107 55.399 C 94.567 56.169 93.027 57.044 92.712 57.359 C 91.417 58.479 92.257 60.929 93.937 60.929 C 94.357 60.894 96.282 60.089 98.207 59.074 C 101.252 57.499 101.707 57.114 101.812 56.274 C 101.952 55.014 101.007 53.929 99.817 53.929 C 99.327 53.964 97.647 54.594 96.107 55.399 Z" fill="#466C2B"/>
  <path d="M 89.387 65.374 C 84.557 67.579 83.822 68.384 85.012 69.994 C 85.362 70.484 85.957 70.974 86.307 71.009 C 87.042 71.184 94.742 67.719 95.862 66.739 C 96.772 65.934 96.842 65.234 96.072 64.149 C 95.267 62.994 94.147 63.204 89.387 65.374 Z" fill="#466C2B"/>
  <path d="M 61.002 47.489 C 60.057 48.154 59.987 49.729 60.862 50.534 C 61.177 50.814 62.822 51.724 64.467 52.529 C 67.162 53.824 67.582 53.929 68.422 53.544 C 69.437 53.054 69.962 51.689 69.437 50.814 C 69.052 50.184 63.137 46.964 62.332 46.929 C 62.017 46.929 61.422 47.174 61.002 47.489 Z" fill="#466C2B"/>
  <path d="M 67.127 57.464 C 65.972 58.374 65.902 59.634 66.987 60.474 C 67.442 60.824 69.262 61.804 71.012 62.644 C 74.127 64.184 74.197 64.184 75.107 63.589 C 77.312 62.119 76.612 60.719 72.587 58.724 C 68.422 56.624 68.212 56.589 67.127 57.464 Z" fill="#466C2B"/>
  <path d="M 60.757 61.489 C 60.407 61.839 60.232 62.504 60.302 63.169 C 60.512 65.129 64.327 66.599 65.587 65.199 C 66.742 63.939 66.252 62.574 64.397 61.629 C 62.752 60.789 61.527 60.754 60.757 61.489 Z" fill="#466C2B"/>
  <path d="M 68.457 64.989 C 68.107 65.339 67.932 66.004 68.002 66.669 C 68.107 67.649 68.422 67.894 71.607 69.574 C 73.532 70.589 75.422 71.394 75.842 71.429 C 77.487 71.429 78.362 68.944 77.137 67.859 C 76.087 66.914 70.802 64.429 69.892 64.429 C 69.402 64.429 68.772 64.674 68.457 64.989 Z" fill="#466C2B"/>
</svg>