<svg id="SvgjsSvg1011" width="288" height="288" xmlns="http://www.w3.org/2000/svg" version="1.1" xmlns:xlink="http://www.w3.org/1999/xlink" xmlns:svgjs="http://svgjs.com/svgjs"><defs id="SvgjsDefs1012"></defs><g id="SvgjsG1013"><svg xmlns="http://www.w3.org/2000/svg" viewBox="75 100 250 200" width="288" height="288"><path fill="#ffffff" d="M0 0 C8.25 0 16.5 0 25 0 C25 8.25 25 16.5 25 25 C33.25 25 41.5 25 50 25 C50 82.75 50 140.5 50 200 C41.75 200 33.5 200 25 200 C25 191.75 25 183.5 25 175 C16.75 175 8.5 175 0 175 C0 183.25 0 191.5 0 200 C-8.25 200 -16.5 200 -25 200 C-25 191.75 -25 183.5 -25 175 C-33.25 175 -41.5 175 -50 175 C-50 183.25 -50 191.5 -50 200 C-58.25 200 -66.5 200 -75 200 C-75 191.75 -75 183.5 -75 175 C-83.25 175 -91.5 175 -100 175 C-100 183.25 -100 191.5 -100 200 C-108.25 200 -116.5 200 -125 200 C-125 191.75 -125 183.5 -125 175 C-133.25 175 -141.5 175 -150 175 C-150 183.25 -150 191.5 -150 200 C-158.25 200 -166.5 200 -175 200 C-175 191.75 -175 183.5 -175 175 C-183.25 175 -191.5 175 -200 175 C-200 158.5 -200 142 -200 125 C-191.75 125 -183.5 125 -175 125 C-175 133.25 -175 141.5 -175 150 C-166.75 150 -158.5 150 -150 150 C-150 125.25 -150 100.5 -150 75 C-141.75 75 -133.5 75 -125 75 C-125 91.5 -125 108 -125 125 C-116.75 125 -108.5 125 -100 125 C-100 100.25 -100 75.5 -100 50 C-91.75 50 -83.5 50 -75 50 C-75 58.25 -75 66.5 -75 75 C-66.75 75 -58.5 75 -50 75 C-50 58.5 -50 42 -50 25 C-41.75 25 -33.5 25 -25 25 C-25 33.25 -25 41.5 -25 50 C-16.75 50 -8.5 50 0 50 C0 33.5 0 17 0 0 Z " transform="translate(275 100)" class="color00FF21 svgShape"></path><path fill="#bbc1bd" d="M0 0 C8.25 0 16.5 0 25 0 C25 57.75 25 115.5 25 175 C16.75 175 8.5 175 0 175 C0 117.25 0 59.5 0 0 Z " transform="translate(300 125)" class="color00870F svgShape"></path><path fill="#ffffff" d="M0 0 C8.25 0 16.5 0 25 0 C25 57.75 25 115.5 25 175 C16.75 175 8.5 175 0 175 C0 117.25 0 59.5 0 0 Z " transform="translate(275 100)" class="color00FF21 svgShape"></path><path fill="#bbc1bd" d="M0 0 C8.25 0 16.5 0 25 0 C25 49.5 25 99 25 150 C16.75 150 8.5 150 0 150 C0 100.5 0 51 0 0 Z " transform="translate(250 150)" class="color00870F svgShape"></path><path fill="#ffffff" d="M0 0 C8.25 0 16.5 0 25 0 C25 49.5 25 99 25 150 C16.75 150 8.5 150 0 150 C0 100.5 0 51 0 0 Z " transform="translate(225 125)" class="color00FF21 svgShape"></path><path fill="#bbc1bd" d="M0 0 C8.25 0 16.5 0 25 0 C25 41.25 25 82.5 25 125 C16.75 125 8.5 125 0 125 C0 83.75 0 42.5 0 0 Z " transform="translate(200 175)" class="color00870F svgShape"></path><path fill="#bbc1bd" d="M0 0 C8.25 0 16.5 0 25 0 C25 8.25 25 16.5 25 25 C33.25 25 41.5 25 50 25 C50 41.5 50 58 50 75 C41.75 75 33.5 75 25 75 C25 66.75 25 58.5 25 50 C16.75 50 8.5 50 0 50 C0 33.5 0 17 0 0 Z " transform="translate(75 225)" class="color00870F svgShape"></path><path fill="#ffffff" d="M0 0 C8.25 0 16.5 0 25 0 C25 33 25 66 25 100 C16.75 100 8.5 100 0 100 C0 67 0 34 0 0 Z " transform="translate(125 175)" class="color00FF21 svgShape"></path><path fill="#bbc1bd" d="M0 0 C8.25 0 16.5 0 25 0 C25 24.75 25 49.5 25 75 C16.75 75 8.5 75 0 75 C0 50.25 0 25.5 0 0 Z " transform="translate(150 225)" class="color00870F svgShape"></path><path fill="#ffffff" d="M0 0 C8.25 0 16.5 0 25 0 C25 16.5 25 33 25 50 C16.75 50 8.5 50 0 50 C0 33.5 0 17 0 0 Z " transform="translate(75 225)" class="color00FF21 svgShape"></path></svg></g></svg>