<svg id="SvgjsSvg1025" width="288" height="288" xmlns="http://www.w3.org/2000/svg" version="1.1" xmlns:xlink="http://www.w3.org/1999/xlink" xmlns:svgjs="http://svgjs.com/svgjs"><defs id="SvgjsDefs1026"></defs><g id="SvgjsG1027"><svg xmlns="http://www.w3.org/2000/svg" viewBox="7.9 4 32.2 40" width="288" height="288"><path fill="none" stroke="#ffffff" stroke-linecap="round" stroke-linejoin="round" d="M8.4 6.5v35a2 2 0 0 0 2 2h2.33v-39H10.4a2 2 0 0 0-2 2Zm4.33-2v39H37.6a2 2 0 0 0 2-2v-35a2 2 0 0 0-2-2Z" class="colorStrokeff5052 svgStroke"></path><path fill="none" stroke="#ffffff" stroke-linecap="round" stroke-linejoin="round" d="m26.165 14l8.658 5l-8.658 5l-8.658-5Z" class="colorStrokeff5052 svgStroke"></path><path fill="none" stroke="#ffffff" stroke-linecap="round" stroke-linejoin="round" d="M17.507 19v10l8.658 5l8.658-5V19m-8.658 15V24" class="colorStrokeff5052 svgStroke"></path></svg></g></svg>